# xmcd
#
# Track frame offsets:
#  150
#  11527
#  20909
#  31262
#  42396
#  54121
#  63675
#  74527
#  84843
#  98095
#  109041
#  121142
#
# Disc length: 1774 seconds
#
# Revision: 0
# Processed by: cddbd v1.5.1PL2 Copyright (c) Steve Scherf et al.
# Submitted via: Collectorz.com_Music_Collector 6.9
#
DISCID=9606ec0c
DTITLE=Deon Jackson - Love Makes the World Go Round
DYEAR=2006
DGENRE=Soul
TTITLE0=Love Makes The World Go Round
TTITLE1=1 2 3
TTITLE2=Love Is What You Make It
TTITLE3=No Not Much
TTITLE4=You Said You Love Me
TTITLE5=SOS
TTITLE6=Love Takes A Long Time
TTITLE7=Nursery Rhymes
TTITLE8=King Of The Road
TTITLE9=I'm Telling You
TTITLE10=Hush Little Baby
TTITLE11=Come Back Home
EXTD=
EXTT0=
EXTT1=
EXTT2=
EXTT3=
EXTT4=
EXTT5=
EXTT6=
EXTT7=
EXTT8=
EXTT9=
EXTT10=
EXTT11=
PLAYORDER=
